rec1_002.mot
nRows=22
nColumns=19

name rec1_002.mot
datacolumns 19
datarows 22
range 15.0061183096 15.0481189502
endheader
time	ground_force_vx	ground_force_vy	ground_force_vz	ground_force_px	ground_force_py	ground_force_pz	1_ground_force_vx	1_ground_force_vy	1_ground_force_vz	1_ground_force_px	1_ground_force_py	1_ground_force_pz	ground_torque_x	ground_torque_y	ground_torque_z	1_ground_torque_x	1_ground_torque_y	1_ground_torque_z	
       15.0061183096	        4.8047531249	      576.2419663083	      -39.9454457631	       -0.7000000000	       -0.0180000000	        0.5600000000	       -0.1602109936	        4.0080634656	        0.4850030313	       -0.7000000000	       -0.0180000000	       -0.5600000000	      267.6356577753	       16.0981600315	      578.0414417603	       -0.7195293159	        0.4392850954	        1.6652757538	
       15.0081186049	        5.6669371098	      577.1690545841	      -39.8553326945	       -0.7000000000	       -0.0180000000	        0.5600000000	       -0.1504063884	        4.0128413678	        0.4825088476	       -0.7000000000	       -0.0180000000	       -0.5600000000	      268.0633907329	       15.7235528979	      577.7833456357	       -0.7201149357	        0.4354611577	        1.7044058355	
       15.0101184201	        6.5209759938	      578.1176593263	      -39.7780354447	       -0.7000000000	       -0.0180000000	        0.5600000000	       -0.1370538278	        4.0170472990	        0.4784533733	       -0.7000000000	       -0.0180000000	       -0.5600000000	      268.4991154413	       15.3615892040	      577.5481731081	       -0.7188450457	        0.4341051246	        1.7477555511	
       15.0121186354	        7.3653369215	      579.0848525877	      -39.7126971118	       -0.7000000000	       -0.0180000000	        0.5600000000	       -0.1207074562	        4.0231820766	        0.4728594803	       -0.7000000000	       -0.0180000000	       -0.5600000000	      268.9413944216	       15.0117530766	      577.3330207343	       -0.7164494433	        0.4351204449	        1.7981278767	
       15.0141183707	        8.1988969385	      580.0681973252	      -39.6584837074	       -0.7000000000	       -0.0180000000	        0.5600000000	       -0.1028098346	        4.0325791037	        0.4656822438	       -0.7000000000	       -0.0180000000	       -0.5600000000	      269.3892865520	       14.6743693617	      577.1345642012	       -0.7134831383	        0.4382407636	        1.8562474709	
       15.0161186660	        9.0208681845	      581.0667228470	      -39.6149600257	       -0.7000000000	       -0.0180000000	        0.5600000000	       -0.0851696565	        4.0452932712	        0.4569990969	       -0.7000000000	       -0.0180000000	       -0.5600000000	      269.8426941328	       14.3502769479	      576.9508168464	       -0.7103263826	        0.4430219104	        1.9203462342	
       15.0181184812	        9.8308801992	      582.0816328034	      -39.5824384850	       -0.7000000000	       -0.0180000000	        0.5600000000	       -0.0691480386	        4.0605445768	        0.4470965157	       -0.7000000000	       -0.0180000000	       -0.5600000000	      270.3026120242	       14.0402557194	      576.7825992218	       -0.7071810868	        0.4489345337	        1.9869864156	
       15.0201186965	       10.6291163443	      583.1164494383	      -39.5620239937	       -0.7000000000	       -0.0180000000	        0.5600000000	       -0.0550520785	        4.0774762283	        0.4364305005	       -0.7000000000	       -0.0180000000	       -0.5600000000	      270.7711610530	       13.7449381742	      576.6338057066	       -0.7041664359	        0.4555077530	        2.0525969623	
       15.0221184316	       11.4164076938	      584.1765829514	      -39.5552580773	       -0.7000000000	       -0.0180000000	        0.5600000000	       -0.0421114430	        4.0958525656	        0.4255366003	       -0.7000000000	       -0.0180000000	       -0.5600000000	      271.2514207048	       13.4647397092	      576.5103229142	       -0.7015208156	        0.4624231227	        2.1148219572	
       15.0241189270	       12.1943453635	      585.2687242566	      -39.5634705185	       -0.7000000000	       -0.0180000000	        0.5600000000	       -0.0290569844	        4.1160468915	        0.4149336688	       -0.7000000000	       -0.0180000000	       -0.5600000000	      271.7471951681	       13.1998873105	      576.4185919251	       -0.6996349143	        0.4695012483	        2.1726585403	
       15.0261184623	       12.9654284869	      586.4006482756	      -39.5871009639	       -0.7000000000	       -0.0180000000	        0.5600000000	       -0.0150230988	        4.1382421604	        0.4050568022	       -0.7000000000	       -0.0180000000	       -0.5600000000	      272.2628880820	       12.9504645458	      576.3651671541	       -0.6988081588	        0.4765683812	        2.2253428183	
       15.0281187975	       13.7331628822	      587.5816197805	      -39.6253552802	       -0.7000000000	       -0.0180000000	        0.5600000000	       -0.0002880515	        4.1616356996	        0.3963708210	       -0.7000000000	       -0.0180000000	       -0.5600000000	      272.8035554362	       12.7157011539	      576.3577069902	       -0.6990385033	        0.4831695518	        2.2710525468	
       15.0301185328	       14.5019083497	      588.8229046844	      -39.6763247746	       -0.7000000000	       -0.0180000000	        0.5600000000	        0.0136594738	        4.1843912224	        0.3896001768	       -0.7000000000	       -0.0180000000	       -0.5600000000	      273.3749836443	       12.4930316861	      576.4064118723	       -0.7000820933	        0.4883280093	        2.3066583701	
       15.0321187881	       15.2763480343	      590.1377702500	      -39.7373697785	       -0.7000000000	       -0.0180000000	        0.5600000000	        0.0248041425	        4.2042339677	        0.3857417458	       -0.7000000000	       -0.0180000000	       -0.5600000000	      273.9835964124	       12.2779845303	      576.5245093491	       -0.7016003311	        0.4907130754	        2.3287162243	
       15.0341185633	       16.0607102209	      591.5406926685	      -39.8054806657	       -0.7000000000	       -0.0180000000	        0.5600000000	        0.0316137961	        4.2191897120	        0.3857490521	       -0.7000000000	       -0.0180000000	       -0.5600000000	      274.6361418926	       12.0650804488	      576.7271163099	       -0.7032299657	        0.4892173460	        2.3348640572	
       15.0361188586	       16.8580535532	      593.0460584450	      -39.8774807718	       -0.7000000000	       -0.0180000000	        0.5600000000	        0.0337616534	        4.2281707469	        0.3901444878	       -0.7000000000	       -0.0180000000	       -0.5600000000	      275.3392527301	       11.8493354005	      577.0290154709	       -0.7046600326	        0.4834976763	        2.3247371547	
       15.0381185937	       17.6699511137	      594.6670112690	      -39.9501171907	       -0.7000000000	       -0.0180000000	        0.5600000000	        0.0321442301	        4.2311242549	        0.3988193638	       -0.7000000000	       -0.0180000000	       -0.5600000000	      276.0990325673	       11.6270399500	      577.4427361445	       -0.7057050126	        0.4741059647	        2.2998889057	
       15.0401189291	       18.4967377383	      596.4149481123	      -40.0202182523	       -0.7000000000	       -0.0180000000	        0.5600000000	        0.0282464496	        4.2285748737	        0.4110974142	       -0.7000000000	       -0.0180000000	       -0.5600000000	      276.9208142025	       11.3951917948	      577.9780557740	       -0.7062405681	        0.4621623156	        2.2627715283	
       15.0421186244	       19.3381823001	      598.2997359652	      -40.0850464247	       -0.7000000000	       -0.0180000000	        0.5600000000	        0.0232727444	        4.2209691552	        0.4260033255	       -0.7000000000	       -0.0180000000	       -0.5600000000	      277.8091445674	       11.1509751937	      578.6429824670	       -0.7060558679	        0.4488106138	        2.2155775285	
       15.0441188797	       20.1940691585	      600.3300943495	      -40.1427553560	       -0.7000000000	       -0.0180000000	        0.5600000000	        0.0175186475	        4.2084129863	        0.4425488211	       -0.7000000000	       -0.0180000000	       -0.5600000000	      278.7678647739	       10.8919905199	      579.4449886563	       -0.7048110932	        0.4348296591	        2.1597750825	
       15.0461186148	       21.0642564298	      602.5133960410	      -40.1927041536	       -0.7000000000	       -0.0180000000	        0.5600000000	        0.0102829741	        4.1908992995	        0.4599099722	       -0.7000000000	       -0.0180000000	       -0.5600000000	      279.8000459885	       10.6167234785	      580.3909976232	       -0.7021479426	        0.4205407386	        2.0964299904	
       15.0481189502	       21.9481937069	      604.8546642019	      -40.2353818676	       -0.7000000000	       -0.0180000000	        0.5600000000	        0.0003388531	        4.1687058921	        0.4774553575	       -0.7000000000	       -0.0180000000	       -0.5600000000	      280.9076578569	       10.3251837232	      581.4857676041	       -0.6978226264	        0.4059777222	        2.0268843005	
